<svg width="217" height="34" viewBox="0 0 217 34" fill="none" xmlns="http://www.w3.org/2000/svg">
<path d="M0.24 33V1.365H4.515L6.36 7.485V33H0.24ZM22.11 33L3.345 8.7L4.515 1.365L23.28 25.665L22.11 33ZM22.11 33L20.355 27.06V1.365H26.52V33H22.11ZM42.7003 33.45C40.4203 33.45 38.3953 32.97 36.6253 32.01C34.8553 31.02 33.4453 29.67 32.3953 27.96C31.3753 26.25 30.8653 24.3 30.8653 22.11C30.8653 19.95 31.3603 18.03 32.3503 16.35C33.3703 14.64 34.7503 13.29 36.4903 12.3C38.2303 11.28 40.1653 10.77 42.2953 10.77C44.3953 10.77 46.2403 11.25 47.8303 12.21C49.4503 13.14 50.7103 14.43 51.6103 16.08C52.5403 17.7 53.0053 19.545 53.0053 21.615C53.0053 22.005 52.9753 22.41 52.9153 22.83C52.8853 23.22 52.8103 23.67 52.6903 24.18L34.4203 24.225V19.815L49.9453 19.77L47.5603 21.615C47.5003 20.325 47.2603 19.245 46.8403 18.375C46.4503 17.505 45.8653 16.845 45.0853 16.395C44.3353 15.915 43.4053 15.675 42.2953 15.675C41.1253 15.675 40.1053 15.945 39.2353 16.485C38.3653 16.995 37.6903 17.73 37.2103 18.69C36.7603 19.62 36.5353 20.73 36.5353 22.02C36.5353 23.34 36.7753 24.495 37.2553 25.485C37.7653 26.445 38.4853 27.195 39.4153 27.735C40.3453 28.245 41.4253 28.5 42.6553 28.5C43.7653 28.5 44.7703 28.32 45.6703 27.96C46.5703 27.57 47.3503 27 48.0103 26.25L51.4753 29.715C50.4253 30.945 49.1353 31.875 47.6053 32.505C46.1053 33.135 44.4703 33.45 42.7003 33.45ZM65.921 33.45C64.001 33.45 62.291 33.045 60.791 32.235C59.321 31.425 58.166 30.3 57.326 28.86C56.486 27.42 56.066 25.755 56.066 23.865V11.265H62.006V23.73C62.006 24.63 62.156 25.41 62.456 26.07C62.756 26.7 63.206 27.18 63.806 27.51C64.406 27.84 65.111 28.005 65.921 28.005C67.151 28.005 68.111 27.63 68.801 26.88C69.491 26.13 69.836 25.08 69.836 23.73V11.265H75.731V23.865C75.731 25.785 75.311 27.465 74.471 28.905C73.661 30.345 72.506 31.47 71.006 32.28C69.536 33.06 67.841 33.45 65.921 33.45ZM78.8954 29.625L90.4154 14.64H97.5254L86.0054 29.625H78.8954ZM78.8954 33V29.625L83.5754 27.87H97.2554V33H78.8954ZM79.7054 16.395V11.265H97.5254V14.64L92.8004 16.395H79.7054ZM102.017 33V1.365H106.292L108.137 7.485V33H102.017ZM123.887 33L105.122 8.7L106.292 1.365L125.057 25.665L123.887 33ZM123.887 33L122.132 27.06V1.365H128.297V33H123.887ZM144.298 33.45C142.108 33.45 140.128 32.955 138.358 31.965C136.618 30.945 135.223 29.58 134.173 27.87C133.153 26.13 132.643 24.195 132.643 22.065C132.643 19.935 133.153 18.03 134.173 16.35C135.193 14.64 136.588 13.29 138.358 12.3C140.128 11.28 142.093 10.77 144.253 10.77C146.473 10.77 148.453 11.28 150.193 12.3C151.963 13.29 153.358 14.64 154.378 16.35C155.398 18.03 155.908 19.935 155.908 22.065C155.908 24.195 155.398 26.13 154.378 27.87C153.358 29.58 151.963 30.945 150.193 31.965C148.453 32.955 146.488 33.45 144.298 33.45ZM144.253 27.96C145.363 27.96 146.338 27.72 147.178 27.24C148.048 26.73 148.708 26.04 149.158 25.17C149.638 24.27 149.878 23.25 149.878 22.11C149.878 20.97 149.638 19.965 149.158 19.095C148.678 18.225 148.018 17.55 147.178 17.07C146.338 16.56 145.363 16.305 144.253 16.305C143.173 16.305 142.213 16.56 141.373 17.07C140.533 17.55 139.873 18.225 139.393 19.095C138.913 19.965 138.673 20.97 138.673 22.11C138.673 23.25 138.913 24.27 139.393 25.17C139.873 26.04 140.533 26.73 141.373 27.24C142.213 27.72 143.173 27.96 144.253 27.96ZM169.918 33.45C167.728 33.45 165.748 32.955 163.978 31.965C162.238 30.945 160.843 29.58 159.793 27.87C158.773 26.13 158.263 24.195 158.263 22.065C158.263 19.935 158.773 18.03 159.793 16.35C160.813 14.64 162.208 13.29 163.978 12.3C165.748 11.28 167.713 10.77 169.873 10.77C172.093 10.77 174.073 11.28 175.813 12.3C177.583 13.29 178.978 14.64 179.998 16.35C181.018 18.03 181.528 19.935 181.528 22.065C181.528 24.195 181.018 26.13 179.998 27.87C178.978 29.58 177.583 30.945 175.813 31.965C174.073 32.955 172.108 33.45 169.918 33.45ZM169.873 27.96C170.983 27.96 171.958 27.72 172.798 27.24C173.668 26.73 174.328 26.04 174.778 25.17C175.258 24.27 175.498 23.25 175.498 22.11C175.498 20.97 175.258 19.965 174.778 19.095C174.298 18.225 173.638 17.55 172.798 17.07C171.958 16.56 170.983 16.305 169.873 16.305C168.793 16.305 167.833 16.56 166.993 17.07C166.153 17.55 165.493 18.225 165.013 19.095C164.533 19.965 164.293 20.97 164.293 22.11C164.293 23.25 164.533 24.27 165.013 25.17C165.493 26.04 166.153 26.73 166.993 27.24C167.833 27.72 168.793 27.96 169.873 27.96ZM199.183 33L190.768 21.795L199.138 11.265H205.933L196.123 23.145L196.348 20.265L206.383 33H199.183ZM185.323 33V0.464998H191.218V33H185.323Z" fill="black"/>
<path d="M213.147 33.45C212.067 33.45 211.182 33.09 210.492 32.37C209.802 31.65 209.457 30.765 209.457 29.715C209.457 28.665 209.802 27.78 210.492 27.06C211.182 26.34 212.067 25.98 213.147 25.98C214.197 25.98 215.067 26.34 215.757 27.06C216.447 27.78 216.792 28.665 216.792 29.715C216.792 30.765 216.447 31.65 215.757 32.37C215.067 33.09 214.197 33.45 213.147 33.45Z" fill="#FF6B00"/>
</svg>
